# xmcd
#
# Track frame offsets: 
#        150
#        28124
#        39672
#        53686
#        66447
#        79465
#        93096
#        105731
#        118624
#        132945
#        144018
#        162884
#
# Disc length: 2403 seconds
#
# Revision: 0
# Processed by: cddbd v1.5.2PL0 Copyright (c) Steve Scherf et al.
# Submitted via: ExactAudioCopy v0.95b4
#
DISCID=9d09610c
DTITLE=B. B. King - Platinum Series
DYEAR=2000
DGENRE=R&B
TTITLE0=Sweet Sixteen
TTITLE1=I'm Gonna Quit My Baby
TTITLE2=I Was Blind
TTITLE3=Just Sing The Blues
TTITLE4=Someday Baby
TTITLE5=Sneakin' Around
TTITLE6=I Had A Woman
TTITLE7=Be Careful With A Fool
TTITLE8=Whole Lot Of Lovin'
TTITLE9=Days Of Old
TTITLE10=Blue Shadows
TTITLE11=You Don't Think Much Of YOur Life
EXTD=
EXTT0=
EXTT1=
EXTT2=
EXTT3=
EXTT4=
EXTT5=
EXTT6=
EXTT7=
EXTT8=
EXTT9=
EXTT10=
EXTT11=
PLAYORDER=
